<?xml version="1.0" encoding="utf-8"?>
<!-- Generator: Adobe Illustrator 26.0.0, SVG Export Plug-In . SVG Version: 6.00 Build 0)  -->
<svg version="1.1" id="Layer_1" xmlns="http://www.w3.org/2000/svg" xmlns:xlink="http://www.w3.org/1999/xlink" x="0px" y="0px"
	 viewBox="0 0 24 24" style="enable-background:new 0 0 24 24;" xml:space="preserve">
<style type="text/css">
	.st0{fill:#FFFFFF;}
</style>
<path class="st0" d="M12.2,6.9c-0.9,0-2.4-1.1-4-1c-2,0-3.9,1.2-5,3C1.1,12.5,2.7,18,4.8,21c1,1.5,2.2,3.1,3.8,3
	c1.5-0.1,2.1-1,3.9-1c1.8,0,2.4,1,4,0.9c1.6,0,2.7-1.5,3.7-2.9c1.2-1.7,1.6-3.3,1.7-3.4c0,0-3.2-1.2-3.2-4.9c0-3,2.5-4.5,2.6-4.6
	c-1.4-2.1-3.6-2.3-4.4-2.4C14.8,5.6,13.1,6.9,12.2,6.9L12.2,6.9z M15.5,3.8c0.8-1,1.4-2.4,1.2-3.8c-1.2,0.1-2.7,0.8-3.5,1.8
	c-0.8,0.9-1.5,2.3-1.3,3.7C13.3,5.6,14.7,4.8,15.5,3.8"/>
</svg>
