<?xml version="1.0" encoding="utf-8"?>
<!-- Generator: Adobe Illustrator 26.0.0, SVG Export Plug-In . SVG Version: 6.00 Build 0)  -->
<svg version="1.1" id="Layer_1" xmlns="http://www.w3.org/2000/svg" xmlns:xlink="http://www.w3.org/1999/xlink" x="0px" y="0px"
	 viewBox="0 0 24 24" style="enable-background:new 0 0 24 24;" xml:space="preserve">
<style type="text/css">
	.st0{fill:#FFFFFF;}
</style>
<path class="st0" d="M18.1,6.1c-0.3,0-0.6,0-0.9,0.1C14.6,6.6,13,8.5,12,9.9c-0.9-1.4-2.6-3.3-5.2-3.7c-0.3,0-0.6-0.1-0.9-0.1
	C2.6,6.1,0,8.8,0,12s2.7,5.9,5.9,5.9c0.3,0,0.6,0,0.9-0.1c2.5-0.4,4.2-2.2,5.2-3.7c0.9,1.4,2.6,3.3,5.2,3.7c0.3,0,0.6,0.1,0.9,0.1
	c3.2,0,5.9-2.6,5.9-5.9S21.3,6.1,18.1,6.1z M6.5,15.7c-0.2,0-0.4,0-0.6,0C3.8,15.8,2,14.1,2,12c0-2.1,1.7-3.8,3.9-3.8
	c0.2,0,0.4,0,0.6,0c2.4,0.4,3.8,2.8,4.3,3.7C10.4,13,8.9,15.4,6.5,15.7z M18.1,15.8c-0.2,0-0.4,0-0.6,0c-2.4-0.4-3.9-2.8-4.3-3.7
	c0.5-1,2-3.4,4.3-3.7c0.2,0,0.4,0,0.6,0c2.1,0,3.9,1.7,3.9,3.8C22,14.1,20.2,15.8,18.1,15.8z M19.7,11.4v1.1h-1.2v1.2h-1.2v-1.2
	h-1.2v-1.1h1.2v-1.2h1.2v1.2C18.5,11.4,19.7,11.4,19.7,11.4z M4.2,12.5h3.6v-1.1H4.2L4.2,12.5L4.2,12.5z"/>
</svg>
