<?xml version="1.0" encoding="utf-8"?>
<!-- Generator: Adobe Illustrator 26.0.0, SVG Export Plug-In . SVG Version: 6.00 Build 0)  -->
<svg version="1.1" id="Layer_1" xmlns="http://www.w3.org/2000/svg" xmlns:xlink="http://www.w3.org/1999/xlink" x="0px" y="0px"
	 viewBox="0 0 24 24" style="enable-background:new 0 0 24 24;" xml:space="preserve">
<style type="text/css">
	.st0{fill:#FFFFFF;}
</style>
<path class="st0" d="M19.5,8.4c-0.5-0.7-1.8-2.3-3.7-4.6c-0.8-1-1.5-1.8-1.9-2.2c-0.2-0.2-0.3-0.4-0.5-0.6l-0.2-0.2l-0.1-0.1l0,0
	l0,0L12.6,0L12,0.5c-1.6,1.2-2.8,2.9-3.7,4.6c-0.5,1.1-0.9,2.1-1,3.2c0,0.2-0.1,0.5-0.1,0.7C6.9,9,6.7,9,6.5,9c0,0,0,0-0.1,0
	C5.7,9,4.9,9.1,4.1,9.3L3.8,9.4L3.7,9.7c-0.8,1.3-1.2,2.9-1.3,4.4c-0.1,2,0.5,4,1.6,5.6c1.1,1.6,2.6,2.9,4.4,3.6l0.2,0.1l0.1,0l0,0
	c0.9,0.3,1.9,0.5,2.9,0.6c0.1,0,0.2,0,0.3,0c1.3,0,2.5-0.2,3.7-0.7l0,0l0.3-0.1c1.6-0.7,2.9-1.9,3.9-3.3c1-1.5,1.6-3.2,1.6-5
	C21.7,12.6,20.9,10.4,19.5,8.4 M12.4,15.1c0.3,1.2,0.3,2.4-0.2,3.6c-1.1-1.1-2-2.4-2.5-3.7c-0.5-1.4-0.9-2.7-1-4
	c0.5,0.2,0.9,0.4,1.3,0.6C11.2,12.3,12,13.5,12.4,15.1L12.4,15.1z M12.6,21.1c0.5,0.4,1,0.7,1.5,1c-0.8,0.2-1.6,0.3-2.4,0.3
	c-0.1,0-0.2,0-0.4,0C11.8,22,12.2,21.5,12.6,21.1L12.6,21.1z M13.9,14.7c-0.5-2-1.5-3.4-3-4.4c-0.6-0.4-1.4-0.7-2.2-0.9
	c0-0.1,0-0.3,0-0.4c0-0.1,0-0.2,0-0.3c0.1-0.7,0.3-1.4,0.6-2c0.1-0.2,0.2-0.5,0.3-0.7l0,0c0.2-0.4,0.4-0.7,0.6-1.1l0.1-0.2l0,0
	c0.5-0.9,1.2-1.6,1.9-2.3l0.3,0.3c0.7,0.8,1.3,1.5,1.9,2.2c1.3,1.5,3,3.6,3.6,4.5c1.3,1.8,1.9,3.6,1.8,5.4c0,1.4-0.5,2.8-1.2,3.9
	c-0.7,1.1-1.7,2-2.8,2.7c-0.6-0.3-1.6-0.8-2.5-1.6C14.2,18.2,14.4,16.4,13.9,14.7L13.9,14.7z M11.4,20.1c-0.7,0.9-1.6,1.5-2.1,1.9
	c-0.1,0-0.2-0.1-0.2-0.1l-0.1,0c-1.5-0.6-2.7-1.7-3.6-3c-0.9-1.4-1.4-3-1.3-4.7c0-1.2,0.3-2.3,0.9-3.4c0.3-0.1,0.6-0.1,1-0.1l0.1,0
	c0.2,0,0.3,0,0.5,0c0.2,0,0.5,0,0.7,0.1c0.1,1.5,0.4,3.1,1.1,4.9C8.8,17.2,9.9,18.7,11.4,20.1L11.4,20.1z"/>
</svg>
