<?xml version="1.0" encoding="utf-8"?>
<!-- Generator: Adobe Illustrator 26.0.0, SVG Export Plug-In . SVG Version: 6.00 Build 0)  -->
<svg version="1.1" id="Layer_1" xmlns="http://www.w3.org/2000/svg" xmlns:xlink="http://www.w3.org/1999/xlink" x="0px" y="0px"
	 viewBox="0 0 24 24" style="enable-background:new 0 0 24 24;" xml:space="preserve">
<style type="text/css">
	.st0{fill:#FFFFFF;}
</style>
<path class="st0" d="M12.5,10.9v3.3h7.8c-0.2,1.8-0.9,3.2-1.8,4.1c-1.1,1.1-2.9,2.4-6.1,2.4c-4.8,0-8.6-3.9-8.6-8.7s3.8-8.7,8.6-8.7
	c2.6,0,4.5,1,5.9,2.3l2.3-2.3C18.7,1.4,16.1,0,12.5,0C5.9,0,0.3,5.4,0.3,12s5.6,12,12.2,12c3.6,0,6.3-1.2,8.4-3.4
	c2.2-2.2,2.8-5.2,2.8-7.7c0-0.8-0.1-1.5-0.2-2.1H12.5z"/>
</svg>
