<svg id="Layer_1" data-name="Layer 1" xmlns="http://www.w3.org/2000/svg" width="32" height="32" viewBox="0 0 32 32">
  <g>
    <path d="M19.45,4.93v7.89H14.9a2.35,2.35,0,0,0-2.35,2.34v4H5.19a2.34,2.34,0,0,1-2.34-2.34V4.93A2.35,2.35,0,0,1,5.19,2.58H17.1A2.35,2.35,0,0,1,19.45,4.93Z" fill="#00ddb3"/>
    <path d="M19.45,12.82v4a2.35,2.35,0,0,1-2.35,2.34H12.55v-4a2.35,2.35,0,0,1,2.35-2.34Z" fill="#333"/>
    <path d="M29.15,15.16V27.07a2.35,2.35,0,0,1-2.34,2.35H14.9a2.35,2.35,0,0,1-2.35-2.35V19.18H17.1a2.35,2.35,0,0,0,2.35-2.34v-4h7.36A2.34,2.34,0,0,1,29.15,15.16Z" fill="#f34747"/>
  </g>
</svg>
