<svg id="Layer_1" data-name="Layer 1" xmlns="http://www.w3.org/2000/svg" width="109.33" height="29.05" viewBox="0 0 109.33 29.05">
  <g>
    <path d="M99.63,4.56v7.9H95.08a2.34,2.34,0,0,0-2.34,2.34v4H85.38A2.35,2.35,0,0,1,83,16.47V4.56a2.35,2.35,0,0,1,2.35-2.34H97.29A2.34,2.34,0,0,1,99.63,4.56Z" fill="#00ddb3"/>
    <path d="M99.63,12.46v4a2.35,2.35,0,0,1-2.34,2.35H92.74v-4a2.34,2.34,0,0,1,2.34-2.34Z" fill="#333"/>
    <path d="M109.33,14.8V26.71A2.34,2.34,0,0,1,107,29.05H95.08a2.34,2.34,0,0,1-2.34-2.34V18.82h4.55a2.35,2.35,0,0,0,2.34-2.35v-4H107A2.34,2.34,0,0,1,109.33,14.8Z" fill="#f34747"/>
  </g>
  <g>
    <path d="M4.43,0V28.56H0V0Z" fill="#333"/>
    <path d="M28.92,18.46a10.71,10.71,0,0,1-2.87,7.71,9.81,9.81,0,0,1-7.38,3,9.88,9.88,0,0,1-7.43-3,10.69,10.69,0,0,1-2.87-7.73,10.73,10.73,0,0,1,2.87-7.76,9.89,9.89,0,0,1,7.43-3,9.78,9.78,0,0,1,7.38,3A10.75,10.75,0,0,1,28.92,18.46Zm-16.05,0a7.72,7.72,0,0,0,1.57,5.05,5.18,5.18,0,0,0,4.23,1.91,5.14,5.14,0,0,0,4.16-1.91,7.62,7.62,0,0,0,1.59-5.05,7.79,7.79,0,0,0-1.57-5.08,5.13,5.13,0,0,0-4.18-1.92,5.19,5.19,0,0,0-4.23,1.92A7.79,7.79,0,0,0,12.87,18.46Z" fill="#333"/>
    <path d="M50,10.76a11.55,11.55,0,0,1,2.5,7.7A11.36,11.36,0,0,1,50,26.15a8.14,8.14,0,0,1-6.44,2.93,7.29,7.29,0,0,1-6.63-3.34v2.82H32.78V0h4.43V10.78a7.4,7.4,0,0,1,6.36-3A8,8,0,0,1,50,10.76Zm-2,7.7a7.91,7.91,0,0,0-1.45-5,4.65,4.65,0,0,0-3.9-1.87,5,5,0,0,0-4.08,1.87,7.53,7.53,0,0,0-1.55,5,7.37,7.37,0,0,0,1.57,4.95,5,5,0,0,0,4.06,1.85,4.69,4.69,0,0,0,3.88-1.85A7.72,7.72,0,0,0,48,18.46Z" fill="#333"/>
    <path d="M72.21,22.41l2.57,2.69a14.29,14.29,0,0,1-4.24,3.12,11.36,11.36,0,0,1-4.69.94,10,10,0,0,1-7.56-2.87,10.65,10.65,0,0,1-2.78-7.71,11.3,11.3,0,0,1,2.72-7.82,9.22,9.22,0,0,1,7.22-3,8.88,8.88,0,0,1,6.86,2.64,10.35,10.35,0,0,1,2.43,7.3c0,.51,0,1.11-.08,1.81H59.86a6.83,6.83,0,0,0,1.81,4.34,5.63,5.63,0,0,0,4.26,1.61,6.68,6.68,0,0,0,3-.64A17.36,17.36,0,0,0,72.21,22.41ZM60,16.25H70.4A5.52,5.52,0,0,0,69,12.57a4.85,4.85,0,0,0-3.62-1.35,4.93,4.93,0,0,0-3.52,1.31A6.5,6.5,0,0,0,60,16.25Z" fill="#333"/>
  </g>
</svg>
