<?xml version="1.0" encoding="utf-8"?>
<!-- Generator: Adobe Illustrator 26.0.0, SVG Export Plug-In . SVG Version: 6.00 Build 0)  -->
<svg version="1.1" id="Layer_1" xmlns="http://www.w3.org/2000/svg" xmlns:xlink="http://www.w3.org/1999/xlink" x="0px" y="0px"
	 viewBox="0 0 24 24" style="enable-background:new 0 0 24 24;" xml:space="preserve">
<style type="text/css">
	.st0{fill:#FFFFFF;}
</style>
<path class="st0" d="M23,11.3c-0.1,0-0.1,0-0.2,0l-4-7.4C18.9,3.7,19,3.6,19,3.4c0-0.5-0.4-1-1-1c-0.3,0-0.5,0.1-0.7,0.3l-8-1.6
	c-0.1-0.5-0.5-0.9-1-0.9c-0.5,0-1,0.4-1,1c0,0.2,0,0.3,0.1,0.5l-6.2,9c-0.1,0-0.2,0-0.3,0c-0.5,0-1,0.4-1,1c0,0.5,0.4,1,1,1h0
	l3.4,8.3c-0.1,0.1-0.1,0.3-0.1,0.4c0,0.5,0.4,1,1,1c0.3,0,0.5-0.1,0.7-0.3l10.1,1c0.1,0.4,0.5,0.7,0.9,0.7c0.5,0,1-0.4,1-1
	c0-0.2-0.1-0.5-0.2-0.6l5.1-8.9c0.1,0,0.1,0,0.2,0c0.5,0,1-0.4,1-1C24,11.7,23.6,11.3,23,11.3L23,11.3z M17.2,4
	c0.1,0.2,0.3,0.3,0.5,0.3l-1.5,11.6C16,15.9,16,16,15.9,16L7.5,8.7c0-0.1,0-0.2,0-0.3c0-0.1,0-0.1,0-0.2L17.2,4z M22.1,12.5
	l-5.2,3.6c0,0-0.1-0.1-0.1-0.1l1.5-11.7h0l3.9,7.3c-0.2,0.2-0.2,0.4-0.2,0.6C22.1,12.4,22.1,12.5,22.1,12.5L22.1,12.5z M6.4,7.5
	C5.9,7.6,5.6,8,5.6,8.5v0.1l-3.5,2l5.4-7.7L6.4,7.5z M6.7,9.4c0.1,0,0.3-0.1,0.4-0.2l8.4,7.3c0,0.1-0.1,0.2-0.1,0.4v0.1l-9.3,3.8
	c-0.1-0.2-0.4-0.4-0.6-0.4L6.7,9.4z M15.6,17.5c0.1,0.1,0.3,0.3,0.5,0.3l0.5,4c-0.2,0.1-0.4,0.3-0.5,0.5l-9.8-1L15.6,17.5z
	 M16.8,17.7c0.3-0.2,0.5-0.5,0.5-0.9c0-0.1,0-0.2,0-0.3l4.7-3.3l-4.8,8.3L16.8,17.7z M17,3.4L7.1,7.7L7,7.6l1.3-5.4h0
	c0.3,0,0.6-0.2,0.8-0.4L17,3.4L17,3.4z M1.9,11.6c0-0.1,0-0.1,0-0.2l3.9-2.3C5.9,9.2,6,9.3,6.1,9.3L4.8,20.2l-3.2-7.9
	C1.8,12.2,1.9,11.9,1.9,11.6L1.9,11.6z"/>
</svg>
